# xmcd
#
# Track frame offsets:
#	150
#	21995
#	42847
#	62344
#	82482
#	102412
#	118577
#	138100
#	161155
#	183780
#	206922
#	234047
#	256687
#	280352
#	299842
#	320134
#
# Disc length: 4593 seconds
#
# Revision: 1
# Processed by: cddbd v1.5.2PL0 Copyright (c) Steve Scherf et al.
# Submitted via: audiograbber 1.83.01
#
DISCID=ee11ef10
DTITLE=Mylene Farmer - The Best of Mylene Farmer
DYEAR=2007
DGENRE=Blues
TTITLE0=les Mots
TTITLE1=Fuck them All
TTITLE2=Sans Contrefacon
TTITLE3=XXL
TTITLE4=L`ame-Stram-Gram
TTITLE5=Libertine
TTITLE6=Pourvu Qu`elles Soient Douces
TTITLE7=Desenchantee
TTITLE8=California
TTITLE9=L`Amour N`est Rain.....
TTITLE10=Avant Que L`ombre
TTITLE11=Souveins-Toi du Jour
TTITLE12=Innamoramento
TTITLE13=C`est une Belle Jouree
TTITLE14=Pardonne-Moi
TTITLE15=Rever
EXTD=
EXTT0=
EXTT1=
EXTT2=
EXTT3=
EXTT4=
EXTT5=
EXTT6=
EXTT7=
EXTT8=
EXTT9=
EXTT10=
EXTT11=
EXTT12=
EXTT13=
EXTT14=
EXTT15=
PLAYORDER=
